<mxfile host="app.diagrams.net" modified="2020-09-01T09:45:36.665Z" agent="5.0 (Macintosh; Intel Mac OS X 10_13_1) AppleWebKit/537.36 (KHTML, like Gecko) Chrome/84.0.4147.135 Safari/537.36" etag="2gSoE_4BoVK0xTAaplYT" version="13.6.6" type="github">
  <diagram id="r-WaH7aXal8CS3bh0y-b" name="Page-1">
    <mxGraphModel dx="946" dy="544" grid="1" gridSize="10" guides="1" tooltips="1" connect="1" arrows="1" fold="1" page="1" pageScale="1" pageWidth="827" pageHeight="1169" math="0" shadow="0">
      <root>
        <mxCell id="0" />
        <mxCell id="1" parent="0" />
        <mxCell id="xNSjWsp1M3g4qbrd8AHT-1" value="弘生活缴费客户端&lt;br&gt;App/小程序" style="shape=umlLifeline;perimeter=lifelinePerimeter;whiteSpace=wrap;html=1;container=1;collapsible=0;recursiveResize=0;outlineConnect=0;" parent="1" vertex="1">
          <mxGeometry x="30" y="30" width="100" height="730" as="geometry" />
        </mxCell>
        <mxCell id="xNSjWsp1M3g4qbrd8AHT-27" value="" style="html=1;points=[];perimeter=orthogonalPerimeter;" parent="xNSjWsp1M3g4qbrd8AHT-1" vertex="1">
          <mxGeometry x="45" y="78" width="10" height="260" as="geometry" />
        </mxCell>
        <mxCell id="PBjNISkBdpp9chnAau5--1" value="" style="html=1;points=[];perimeter=orthogonalPerimeter;" vertex="1" parent="xNSjWsp1M3g4qbrd8AHT-1">
          <mxGeometry x="45" y="360" width="10" height="290" as="geometry" />
        </mxCell>
        <mxCell id="xNSjWsp1M3g4qbrd8AHT-2" value="弘生活缴费服务端" style="shape=umlLifeline;perimeter=lifelinePerimeter;whiteSpace=wrap;html=1;container=1;collapsible=0;recursiveResize=0;outlineConnect=0;" parent="1" vertex="1">
          <mxGeometry x="210" y="30" width="100" height="760" as="geometry" />
        </mxCell>
        <mxCell id="xNSjWsp1M3g4qbrd8AHT-24" value="API130 应收费用获取" style="html=1;verticalAlign=bottom;endArrow=block;" parent="xNSjWsp1M3g4qbrd8AHT-2" edge="1">
          <mxGeometry x="0.0028" width="80" relative="1" as="geometry">
            <mxPoint x="50" y="104" as="sourcePoint" />
            <mxPoint x="229.5" y="104" as="targetPoint" />
            <mxPoint as="offset" />
          </mxGeometry>
        </mxCell>
        <mxCell id="xNSjWsp1M3g4qbrd8AHT-28" value="" style="html=1;points=[];perimeter=orthogonalPerimeter;" parent="xNSjWsp1M3g4qbrd8AHT-2" vertex="1">
          <mxGeometry x="45" y="78" width="10" height="260" as="geometry" />
        </mxCell>
        <mxCell id="xNSjWsp1M3g4qbrd8AHT-38" value="&lt;font color=&quot;#ff0000&quot;&gt;收款单位 + 单价 如何获取？？&lt;/font&gt;" style="html=1;verticalAlign=bottom;endArrow=block;" parent="xNSjWsp1M3g4qbrd8AHT-2" edge="1">
          <mxGeometry width="80" relative="1" as="geometry">
            <mxPoint x="50" y="218" as="sourcePoint" />
            <mxPoint x="229.5" y="218" as="targetPoint" />
          </mxGeometry>
        </mxCell>
        <mxCell id="xNSjWsp1M3g4qbrd8AHT-46" value="" style="html=1;points=[];perimeter=orthogonalPerimeter;" parent="xNSjWsp1M3g4qbrd8AHT-2" vertex="1">
          <mxGeometry x="50" y="275" width="10" height="40" as="geometry" />
        </mxCell>
        <mxCell id="xNSjWsp1M3g4qbrd8AHT-47" value="封装房产缴费基本信息" style="edgeStyle=orthogonalEdgeStyle;html=1;align=left;spacingLeft=2;endArrow=block;rounded=0;entryX=1;entryY=0;" parent="xNSjWsp1M3g4qbrd8AHT-2" target="xNSjWsp1M3g4qbrd8AHT-46" edge="1">
          <mxGeometry relative="1" as="geometry">
            <mxPoint x="55" y="248" as="sourcePoint" />
            <Array as="points">
              <mxPoint x="80" y="248" />
            </Array>
          </mxGeometry>
        </mxCell>
        <mxCell id="PBjNISkBdpp9chnAau5--2" value="" style="html=1;points=[];perimeter=orthogonalPerimeter;" vertex="1" parent="xNSjWsp1M3g4qbrd8AHT-2">
          <mxGeometry x="45" y="360" width="10" height="290" as="geometry" />
        </mxCell>
        <mxCell id="PBjNISkBdpp9chnAau5--9" value="API146 生成未来应收" style="html=1;verticalAlign=bottom;endArrow=block;" edge="1" parent="xNSjWsp1M3g4qbrd8AHT-2" target="xNSjWsp1M3g4qbrd8AHT-3">
          <mxGeometry width="80" relative="1" as="geometry">
            <mxPoint x="50" y="430" as="sourcePoint" />
            <mxPoint x="130" y="430" as="targetPoint" />
          </mxGeometry>
        </mxCell>
        <mxCell id="PBjNISkBdpp9chnAau5--11" value="API150 生成未来应收获取收费项目" style="html=1;verticalAlign=bottom;endArrow=block;" edge="1" parent="xNSjWsp1M3g4qbrd8AHT-2" target="xNSjWsp1M3g4qbrd8AHT-3">
          <mxGeometry width="80" relative="1" as="geometry">
            <mxPoint x="50" y="480" as="sourcePoint" />
            <mxPoint x="130" y="480" as="targetPoint" />
          </mxGeometry>
        </mxCell>
        <mxCell id="PBjNISkBdpp9chnAau5--14" value="API157 获取收费项目" style="html=1;verticalAlign=bottom;endArrow=block;" edge="1" parent="xNSjWsp1M3g4qbrd8AHT-2" target="xNSjWsp1M3g4qbrd8AHT-3">
          <mxGeometry width="80" relative="1" as="geometry">
            <mxPoint x="50" y="530" as="sourcePoint" />
            <mxPoint x="130" y="530" as="targetPoint" />
          </mxGeometry>
        </mxCell>
        <mxCell id="PBjNISkBdpp9chnAau5--17" value="" style="html=1;points=[];perimeter=orthogonalPerimeter;" vertex="1" parent="xNSjWsp1M3g4qbrd8AHT-2">
          <mxGeometry x="50" y="590" width="10" height="40" as="geometry" />
        </mxCell>
        <mxCell id="PBjNISkBdpp9chnAau5--18" value="&lt;font color=&quot;#ff0000&quot;&gt;以上是和应收账单相关的&lt;br&gt;接口，该如何组装利用以&lt;br&gt;满足页面数据展示需求？&lt;/font&gt;" style="edgeStyle=orthogonalEdgeStyle;html=1;align=left;spacingLeft=2;endArrow=block;rounded=0;entryX=1;entryY=0;" edge="1" target="PBjNISkBdpp9chnAau5--17" parent="xNSjWsp1M3g4qbrd8AHT-2">
          <mxGeometry relative="1" as="geometry">
            <mxPoint x="55" y="570" as="sourcePoint" />
            <Array as="points">
              <mxPoint x="80" y="570" />
            </Array>
          </mxGeometry>
        </mxCell>
        <mxCell id="xNSjWsp1M3g4qbrd8AHT-3" value="超智慧收费接口" style="shape=umlLifeline;perimeter=lifelinePerimeter;whiteSpace=wrap;html=1;container=1;collapsible=0;recursiveResize=0;outlineConnect=0;" parent="1" vertex="1">
          <mxGeometry x="390" y="30" width="100" height="620" as="geometry" />
        </mxCell>
        <mxCell id="xNSjWsp1M3g4qbrd8AHT-4" value="工行支付接口" style="shape=umlLifeline;perimeter=lifelinePerimeter;whiteSpace=wrap;html=1;container=1;collapsible=0;recursiveResize=0;outlineConnect=0;" parent="1" vertex="1">
          <mxGeometry x="570" y="30" width="100" height="300" as="geometry" />
        </mxCell>
        <mxCell id="xNSjWsp1M3g4qbrd8AHT-5" value="大象发票接口" style="shape=umlLifeline;perimeter=lifelinePerimeter;whiteSpace=wrap;html=1;container=1;collapsible=0;recursiveResize=0;outlineConnect=0;" parent="1" vertex="1">
          <mxGeometry x="750" y="30" width="100" height="300" as="geometry" />
        </mxCell>
        <mxCell id="xNSjWsp1M3g4qbrd8AHT-21" value="获取房产缴费基本信息&lt;br&gt;（业主+面积+单价+收款单位）" style="html=1;verticalAlign=bottom;endArrow=block;" parent="1" edge="1">
          <mxGeometry width="80" relative="1" as="geometry">
            <mxPoint x="80" y="109" as="sourcePoint" />
            <mxPoint x="260" y="109" as="targetPoint" />
          </mxGeometry>
        </mxCell>
        <mxCell id="xNSjWsp1M3g4qbrd8AHT-29" value="得到缴费面积" style="html=1;verticalAlign=bottom;endArrow=open;dashed=1;endSize=8;" parent="1" edge="1">
          <mxGeometry relative="1" as="geometry">
            <mxPoint x="440" y="156" as="sourcePoint" />
            <mxPoint x="260" y="156" as="targetPoint" />
          </mxGeometry>
        </mxCell>
        <mxCell id="xNSjWsp1M3g4qbrd8AHT-35" value="API153 获取业主信息" style="html=1;verticalAlign=bottom;endArrow=block;" parent="1" edge="1">
          <mxGeometry width="80" relative="1" as="geometry">
            <mxPoint x="264" y="189" as="sourcePoint" />
            <mxPoint x="439.5" y="189" as="targetPoint" />
          </mxGeometry>
        </mxCell>
        <mxCell id="xNSjWsp1M3g4qbrd8AHT-36" value="得到业主姓名" style="html=1;verticalAlign=bottom;endArrow=open;dashed=1;endSize=8;" parent="1" edge="1">
          <mxGeometry relative="1" as="geometry">
            <mxPoint x="440" y="211" as="sourcePoint" />
            <mxPoint x="259.5" y="211" as="targetPoint" />
          </mxGeometry>
        </mxCell>
        <mxCell id="xNSjWsp1M3g4qbrd8AHT-39" value="&lt;font color=&quot;#ff0000&quot;&gt;？？？&lt;/font&gt;" style="html=1;verticalAlign=bottom;endArrow=open;dashed=1;endSize=8;" parent="1" edge="1">
          <mxGeometry relative="1" as="geometry">
            <mxPoint x="440" y="268" as="sourcePoint" />
            <mxPoint x="259.5" y="268" as="targetPoint" />
          </mxGeometry>
        </mxCell>
        <mxCell id="xNSjWsp1M3g4qbrd8AHT-48" value="返回房产缴费基本信息" style="html=1;verticalAlign=bottom;endArrow=open;dashed=1;endSize=8;" parent="1" edge="1">
          <mxGeometry relative="1" as="geometry">
            <mxPoint x="260" y="368" as="sourcePoint" />
            <mxPoint x="79.5" y="368" as="targetPoint" />
          </mxGeometry>
        </mxCell>
        <mxCell id="PBjNISkBdpp9chnAau5--4" value="返回账单" style="html=1;verticalAlign=bottom;endArrow=open;dashed=1;endSize=8;" edge="1" parent="1">
          <mxGeometry relative="1" as="geometry">
            <mxPoint x="79.5" y="670" as="targetPoint" />
            <mxPoint x="260" y="670" as="sourcePoint" />
          </mxGeometry>
        </mxCell>
        <mxCell id="PBjNISkBdpp9chnAau5--3" value="获取缴费账单" style="html=1;verticalAlign=bottom;endArrow=block;entryX=0;entryY=0;" edge="1" target="PBjNISkBdpp9chnAau5--2" parent="1" source="xNSjWsp1M3g4qbrd8AHT-1">
          <mxGeometry relative="1" as="geometry">
            <mxPoint x="185" y="390" as="sourcePoint" />
          </mxGeometry>
        </mxCell>
        <mxCell id="PBjNISkBdpp9chnAau5--6" value="API130 应收费用获取" style="html=1;verticalAlign=bottom;endArrow=block;" edge="1" parent="1" target="xNSjWsp1M3g4qbrd8AHT-3">
          <mxGeometry width="80" relative="1" as="geometry">
            <mxPoint x="260" y="410" as="sourcePoint" />
            <mxPoint x="340" y="410" as="targetPoint" />
          </mxGeometry>
        </mxCell>
        <mxCell id="PBjNISkBdpp9chnAau5--8" value="return" style="html=1;verticalAlign=bottom;endArrow=open;dashed=1;endSize=8;" edge="1" parent="1" target="xNSjWsp1M3g4qbrd8AHT-2">
          <mxGeometry relative="1" as="geometry">
            <mxPoint x="440" y="430" as="sourcePoint" />
            <mxPoint x="360" y="430" as="targetPoint" />
          </mxGeometry>
        </mxCell>
        <mxCell id="PBjNISkBdpp9chnAau5--10" value="return" style="html=1;verticalAlign=bottom;endArrow=open;dashed=1;endSize=8;" edge="1" parent="1" target="xNSjWsp1M3g4qbrd8AHT-2">
          <mxGeometry relative="1" as="geometry">
            <mxPoint x="440" y="480" as="sourcePoint" />
            <mxPoint x="360" y="480" as="targetPoint" />
          </mxGeometry>
        </mxCell>
        <mxCell id="PBjNISkBdpp9chnAau5--13" value="return" style="html=1;verticalAlign=bottom;endArrow=open;dashed=1;endSize=8;" edge="1" parent="1" target="xNSjWsp1M3g4qbrd8AHT-2">
          <mxGeometry relative="1" as="geometry">
            <mxPoint x="440" y="530" as="sourcePoint" />
            <mxPoint x="360" y="530" as="targetPoint" />
          </mxGeometry>
        </mxCell>
        <mxCell id="PBjNISkBdpp9chnAau5--15" value="return" style="html=1;verticalAlign=bottom;endArrow=open;dashed=1;endSize=8;" edge="1" parent="1" target="xNSjWsp1M3g4qbrd8AHT-2">
          <mxGeometry relative="1" as="geometry">
            <mxPoint x="440" y="580" as="sourcePoint" />
            <mxPoint x="360" y="580" as="targetPoint" />
          </mxGeometry>
        </mxCell>
      </root>
    </mxGraphModel>
  </diagram>
</mxfile>
